<svg width="24" height="24" viewBox="0 0 24 24" fill="none" xmlns="http://www.w3.org/2000/svg">
<g clip-path="url(#clip0_190_1382)">
<path d="M13 2.6001C17.4183 2.6001 21 6.18182 21 10.6001M13.5 6.1001C15.7091 6.1001 17.5 7.89096 17.5 10.1001" stroke="#141B34" stroke-width="1.5" stroke-linecap="round" stroke-linejoin="round"/>
<path d="M9.15825 5.31233L8.7556 4.40635C8.49232 3.81397 8.36068 3.51778 8.1638 3.29111C7.91707 3.00704 7.59547 2.79804 7.23567 2.68794C6.94858 2.6001 6.62446 2.6001 5.97621 2.6001C5.02791 2.6001 4.55375 2.6001 4.15573 2.78239C3.68687 2.99712 3.26343 3.46338 3.09473 3.9507C2.95151 4.36439 2.99253 4.78953 3.07458 5.6398C3.94791 14.6903 8.90981 19.6522 17.9603 20.5255C18.8106 20.6076 19.2357 20.6486 19.6494 20.5054C20.1367 20.3367 20.603 19.9132 20.8177 19.4444C21 19.0463 21 18.5722 21 17.6239C21 16.9756 21 16.6515 20.9122 16.3644C20.8021 16.0046 20.5931 15.683 20.309 15.4363C20.0823 15.2394 19.7861 15.1078 19.1937 14.8445L18.2878 14.4418C17.6462 14.1567 17.3255 14.0142 16.9995 13.9832C16.6876 13.9535 16.3731 13.9973 16.0811 14.111C15.776 14.2298 15.5063 14.4545 14.967 14.9039C14.4301 15.3513 14.1617 15.575 13.8337 15.6948C13.543 15.801 13.1586 15.8404 12.8523 15.7952C12.5069 15.7443 12.2423 15.603 11.7133 15.3202C10.0672 14.4406 9.15953 13.5329 8.27986 11.8868C7.99714 11.3578 7.85578 11.0932 7.80487 10.7478C7.75974 10.4415 7.79908 10.0571 7.9053 9.76637C8.02512 9.43838 8.24881 9.16995 8.69619 8.6331C9.14562 8.09378 9.37034 7.82412 9.48915 7.51901C9.60285 7.22704 9.64661 6.9125 9.61694 6.60057C9.58594 6.27462 9.44338 5.95386 9.15825 5.31233Z" stroke="#141B34" stroke-width="1.5" stroke-linecap="round"/>
</g>
<defs>
<clipPath id="clip0_190_1382">
<rect width="24" height="24" fill="white"/>
</clipPath>
</defs>
</svg>
