<svg width="24" height="24" viewBox="0 0 24 24" fill="none" xmlns="http://www.w3.org/2000/svg">
<g clip-path="url(#clip0_331_503)">
<path d="M9 10.4293C10.3726 9.05676 12.598 9.05676 13.9706 10.4293C15.3431 11.8019 15.3431 14.0273 13.9706 15.3999" stroke="#141B34" stroke-width="1.5"/>
<path d="M4.85289 19.547C8.04869 22.7428 12.9127 23.2537 16.6418 21.0796C17.5285 20.5627 17.9719 20.3042 17.999 19.7781C18.0261 19.2521 17.5277 18.8881 16.531 18.1602C14.683 16.8106 12.8636 15.1602 11.0516 13.3483C9.23967 11.5363 7.58927 9.71695 6.23969 7.86894C5.51179 6.87221 5.14784 6.37385 4.62178 6.40095C4.09572 6.42805 3.83725 6.8714 3.32031 7.75808C1.14624 11.4872 1.6571 16.3512 4.85289 19.547Z" stroke="#141B34" stroke-width="1.5" stroke-linejoin="round"/>
<path d="M15.5574 2.3999C17.2371 2.57233 18.7811 3.23953 19.9693 4.42574C21.1611 5.61569 21.8299 7.16324 22 8.8464M18.5017 9.3999C18.3026 8.54248 17.8914 7.76134 17.2598 7.13082C16.6314 6.50346 15.8537 6.09386 15 5.89395" stroke="#141B34" stroke-width="1.5" stroke-linecap="round"/>
</g>
<defs>
<clipPath id="clip0_331_503">
<rect width="24" height="24" fill="white"/>
</clipPath>
</defs>
</svg>
